<?xml version="1.0" encoding="UTF-8" standalone="no"?>
<svg
   width="512"
   height="512"
   version="1.1"
   viewBox="0 0 512 512"
   id="svg14"
   sodipodi:docname="logo.svg"
   inkscape:version="1.4.2 (f4327f4, 2025-05-13)"
   xmlns:inkscape="http://www.inkscape.org/namespaces/inkscape"
   xmlns:sodipodi="http://sodipodi.sourceforge.net/DTD/sodipodi-0.dtd"
   xmlns:xlink="http://www.w3.org/1999/xlink"
   xmlns="http://www.w3.org/2000/svg"
   xmlns:svg="http://www.w3.org/2000/svg">
  <sodipodi:namedview
     id="namedview14"
     pagecolor="#ffffff"
     bordercolor="#000000"
     borderopacity="0.25"
     inkscape:showpageshadow="2"
     inkscape:pageopacity="0.0"
     inkscape:pagecheckerboard="0"
     inkscape:deskcolor="#d1d1d1"
     inkscape:zoom="1.2719636"
     inkscape:cx="170.20928"
     inkscape:cy="205.19456"
     inkscape:window-width="3221"
     inkscape:window-height="2060"
     inkscape:window-x="2220"
     inkscape:window-y="1"
     inkscape:window-maximized="0"
     inkscape:current-layer="svg14" />
  <defs
     id="defs9">
    <linearGradient
       id="linearGradient22708">
      <stop
         stop-color="#21facf"
         offset="0"
         id="stop1" />
      <stop
         stop-color="#0970ef"
         offset="1"
         id="stop2" />
    </linearGradient>
    <linearGradient
       id="linearGradient6949"
       x1="68.454"
       x2="198.59"
       y1="246.73"
       y2="96.35"
       gradientTransform="translate(-5.754,-56.594)"
       gradientUnits="userSpaceOnUse">
      <stop
         stop-color="#72004e"
         offset="0"
         id="stop3" />
      <stop
         stop-color="#0015b1"
         offset="1"
         id="stop4" />
    </linearGradient>
    <linearGradient
       id="linearGradient22718"
       x1="56.735"
       x2="155.2"
       y1="246.96"
       y2="58.575"
       gradientUnits="userSpaceOnUse">
      <stop
         stop-color="#4f00da"
         offset="0"
         id="stop5" />
      <stop
         stop-color="#e5311b"
         offset="1"
         id="stop6" />
    </linearGradient>
    <linearGradient
       id="linearGradient23463"
       x1="68.454"
       x2="198.59"
       y1="246.73"
       y2="96.35"
       gradientUnits="userSpaceOnUse"
       xlink:href="#linearGradient22708" />
    <linearGradient
       id="linearGradient903"
       x1="54.478"
       x2="192.1"
       y1="247.56"
       y2="9.8095"
       gradientTransform="matrix(.87923 0 0 .87923 -9.551 48.787)"
       gradientUnits="userSpaceOnUse">
      <stop
         stop-color="#dc180d"
         offset="0"
         id="stop7" />
      <stop
         stop-color="#f96e20"
         offset=".5"
         id="stop8" />
      <stop
         stop-color="#f4ce41"
         offset="1"
         id="stop9" />
    </linearGradient>
    <linearGradient
       id="linearGradient918"
       x1="39.468"
       x2="154.99"
       y1="204.22"
       y2="124.47"
       gradientUnits="userSpaceOnUse"
       xlink:href="#linearGradient22708" />
  </defs>
  <g
     id="g24"
     transform="matrix(0.07399122,0,0,0.07399122,7.9607553,7.1366502)">
    <path
       fill="#000923"
       d="m 0,798.73 v 5134.6 c 47.15,109.68 73.88,300.95 230.25,461.94 215.35,221.69 426.51,345.6 804.79,362.8 298.25,13.57 628.37,1.8 929.89,1.28 l 2788.08,0.24 c 305.91,-0.06 625.85,8.49 930,-0.92 330.33,-10.22 489.22,-93.28 694.64,-235.92 114.56,-97.74 104.73,-97.82 144.31,-145.99 150.93,-183.69 231.02,-379.22 230.69,-694.38 L 6752.3,2894.3 c 0.34,-618.1 7.71,-1241.29 -0.24,-1858.72 C 6746.29,588.04 6508.99,223.93 6101.37,58.2 6047.06,36.12 5970.5,21.66 5916.59,0.01 H 824.1 C 782.46,16.51 706.32,29.81 658.5,47.32 421.03,134.24 242.09,296.84 113.8,512.57 35.96,643.47 34.58,718.05 0,798.74 Z"
       id="path1" />
    <path
       fill="#d878d8"
       d="m 4634.44,4606.95 c -59.44,138.93 -304.67,159.25 -339.61,142.52 -58.19,-27.86 -22.28,22.4 -42.49,-49.53 -78.23,-17.32 -94.93,-245.87 -6.57,-291.78 165.18,-57.75 199.3,123.56 464.75,47.83 17.86,48.17 55.87,97.51 34.01,153.33 -45.55,17.26 -56.63,11.91 -110.09,-2.36 z m -660.1,-1602.6 37.9,48.14 c -166.42,-22.49 -455.35,-231.68 -543.18,-325.35 -150.34,-160.33 -428.82,-373.35 -703.21,-424.4 7.73,92.17 -4.84,65.16 84.01,96.24 224.89,78.67 473.67,285.79 640.28,458.04 55.98,57.88 43.98,52.97 119.29,84.97 -24.78,15.47 -23.2,26.95 -97.41,4.91 3.24,75.26 7.56,55.82 -27.9,104.63 29.53,27.66 -16.79,3.9 40.01,25.94 305.06,56.01 790.79,505.42 945.75,361.81 -15.79,218.53 -115.46,147.06 -259.27,206.77 -24.23,27.97 -37.08,52.69 -56.2,92.07 -27.06,55.75 -27.85,78.39 -77.92,103.38 -79.78,-4.82 -108.12,-27.75 -222.03,-27.75 25.14,106.08 -44,132.27 -58.45,157.76 -36.04,63.6 41.89,7.08 -112.55,195.33 -113.06,137.81 27.53,18.4 -145.99,169.47 l -80.01,69.5 c -2.68,2.17 -6.46,5.28 -9.18,7.41 l -47.6,35.5 c -2.65,2.25 -6.38,5.45 -8.96,7.78 l -32.63,34.29 c -44.89,42.06 21.5,32.78 -80.13,34.27 0.37,54.7 11.19,78.61 -13.33,110.15 28.99,109.1 8.75,196.19 -50.47,276.83 -62.48,85.07 -157.58,76.66 -157.92,190.85 -7.44,28.17 8.88,18.99 -9.06,40.7 5.2,-1.89 33.04,-9.56 37.99,-10.84 115.55,-30 62.39,-2.61 150.32,-66.72 l 19,-13.96 c 67.07,-45.71 17.25,-3.61 86.5,-0.9 36.63,1.44 152.25,-15.19 195,-1.59 34.34,10.92 16.77,-33.29 12.06,8.59 l 18.75,-7.27 c 9.14,-23.63 -37.77,-16.11 -1.17,73.06 58.4,23.68 84.34,9.02 130.1,2.76 -2.78,-0.8 -33.6,-34.41 -14.54,28.46 13.51,44.6 34.36,46.22 35.58,47.57 42.81,47.16 9.25,-8.46 16.83,32.6 30.91,167.53 55.27,79.62 251.69,106 124.3,16.69 31.63,29.3 111.49,48.21 107.28,25.4 -55.95,1.16 25.8,2.43 0.27,0 59.25,-7.92 61.43,-8.02 0.23,-63.16 5.54,-44.9 -13.74,-91.45 -100.12,4.06 -229.99,33.28 -320.48,13.7 -84.03,-18.18 -43.26,3.12 -71.67,-46.18 37.39,-74.55 72.07,-34 222.7,-94.71 248.28,-100.07 217.19,-169.59 466.02,-109.32 127.21,30.82 48.48,-9.55 126.89,-7.2 44.88,1.34 66.08,30.96 73.93,78.33 -7.76,-45.3 8.11,27.86 70,-76.42 l 105.84,-228.01 c 25.64,-54.38 54.8,-75.28 10.12,-152.32 -22.98,37.17 -118.04,95.45 -170.27,131.66 -178.56,123.8 -48.13,155.79 -148.95,194.2 -155.36,-212.74 187.76,-265.32 269.26,-390.33 63.35,-97.18 20.22,-153.57 -23.83,-248.19 -104.23,-223.92 -208.87,-681.05 -7.16,-846.42 l 466.45,-254.99 c -0.09,-243.95 -25.91,-454.93 -54.69,-689.76 -49.71,181.76 -44.91,234.72 -158.19,350.33 -45.29,46.23 -78.64,86.92 -149.34,118.46 -680.09,303.45 -1142.33,-862.33 -492.78,-1160.78 298.18,-137.01 541.78,12.9 705.33,264.27 -11.88,-193.26 -196.69,-473.63 -299.09,-563.28 -9.24,86.57 -46.07,44.6 -81.15,15.93 -155.42,-127.03 -92.86,-87.75 -161.03,-157.29 l -90.46,-60.96 c -64.13,-52.32 -115.29,-90.37 -180.18,-133.54 -51.68,-34.38 -123.97,-82.63 -186.29,-108.87 18.53,24.58 9.86,7.72 13.35,61.1 l -6.33,110.19 c 10.3,35.02 37.4,60.03 36.27,98.07 l -36,129.39 c -0.83,2.78 -11.81,33.16 -11.84,33.29 -4.82,21.08 -5.53,5 -4.71,37.46 0.87,34.55 1.66,20.68 10.36,37.27 -6.17,3.61 -31.08,12.4 -31.64,12.79 -42.09,28.49 -1.4,-13.99 -17.88,19.26 -1.67,3.37 -5.09,25.53 -6.15,30.02 l -21.04,74.42 c -24.42,81.1 -12.87,47.37 -37.59,61.6 -1.37,164.12 -35.15,131.37 -58.84,257.84 l -25.65,257.86 c -1.04,57.89 5.24,100.01 12.05,126.59 l 38.2,122.81 c 58.46,88.84 -4.7,144 18.46,185.75 21.99,39.64 13.82,26.15 7.16,73.13 -0.32,2.21 -1.29,7.21 -1.51,9.46 -3.79,38.05 -0.33,82.79 5.41,135.24 z"
       id="path2" />
    <path
       fill="#f796ec"
       d="m 2468.06,1301.63 360.62,-132.35 c 138.16,-27.87 439.05,-4.03 563.43,69.66 196.44,116.39 96.83,81.73 134.25,113.2 26.59,22.36 16.57,-17.56 36.77,1.47 26.98,25.41 28.37,100.97 36.52,120.31 0.76,1.81 29.3,44.31 29.51,44.7 92.78,167.62 13.25,488.73 -40.09,659.17 -41.9,133.89 -60.72,122.16 -57.07,185.79 91.92,112.11 118.64,198.38 198.09,336.98 50.41,87.95 99.93,161.62 168.83,229.39 28.61,28.13 46.67,56.24 75.43,74.41 -5.74,-52.45 -9.21,-97.18 -5.41,-135.24 0.22,-2.25 1.2,-7.24 1.51,-9.46 6.65,-46.98 14.83,-33.48 -7.16,-73.13 -23.17,-41.75 40,-96.91 -18.46,-185.75 l -38.2,-122.81 c -6.81,-26.58 -13.1,-68.7 -12.05,-126.59 l 25.65,-257.86 c 23.69,-126.47 57.47,-93.72 58.84,-257.84 24.72,-14.23 13.17,19.5 37.59,-61.6 l 21.04,-74.42 c 1.06,-4.49 4.48,-26.65 6.15,-30.02 16.48,-33.25 -24.21,9.23 17.88,-19.26 0.56,-0.39 25.47,-9.18 31.64,-12.79 -8.7,-16.59 -9.5,-2.72 -10.36,-37.27 -0.82,-32.46 -0.1,-16.38 4.71,-37.46 0.03,-0.13 11.01,-30.51 11.84,-33.29 l 36,-129.39 c 1.14,-38.04 -25.97,-63.05 -36.27,-98.07 l 6.33,-110.19 c -3.49,-53.38 5.18,-36.51 -13.35,-61.1 62.32,26.23 134.61,74.48 186.29,108.87 64.89,43.17 116.05,81.22 180.18,133.54 l 90.46,60.96 c 68.17,69.54 5.62,30.27 161.03,157.29 35.08,28.67 71.91,70.64 81.15,-15.93 C 4579.34,1243.31 3975.92,925.16 3552,834.48 3251.49,770.2 2934,762.94 2624.8,816.22 c -226.22,38.98 -598.23,159.73 -701.05,288.04 44.25,21.47 205.21,47.48 282.94,75.89 100.94,36.9 173.82,84.53 261.39,121.48 z"
       id="path3" />
    <path
       fill="#d878d8"
       d="m 3927.94,5891.69 c 1.64,-17.93 56.6,-106.38 71.5,-128.76 38.71,-58.15 48.48,-77.66 145.35,-74.47 298.63,9.83 240.86,408.35 -96.9,384.37 -66.05,-4.69 -133.37,-16.11 -148.3,-64.11 -10.06,-32.35 23.95,-75.54 28.16,-90.55 l 0.2,-26.49 z m 154.64,-408.84 c 132.81,33.24 211.06,63.28 362.34,47.66 2.07,82.11 -19,117 -52.38,176.53 -76.65,-27.5 -128.56,-34.13 -204.09,-56.79 -79.2,-23.75 -97.41,-78.97 -105.86,-167.4 z m 772.04,-812.49 c 44.68,77.04 15.51,97.94 -10.12,152.32 l -105.84,228.01 c -61.89,104.28 -77.76,31.12 -70,76.42 -9.34,63.49 -17.58,112.62 -57.57,150.53 -34,32.23 -55.4,29.59 -108.3,41.07 -208.8,45.29 -196.65,-66.37 -331.53,-26.22 19.28,46.55 13.96,28.29 13.74,91.45 -2.18,0.1 -61.16,8.03 -61.43,8.02 -81.75,-1.27 81.48,22.97 -25.8,-2.43 -79.86,-18.9 12.82,-31.52 -111.49,-48.21 -196.42,-26.37 -220.78,61.53 -251.69,-106 -7.58,-41.06 25.99,14.56 -16.83,-32.6 -1.22,-1.35 -22.07,-2.97 -35.58,-47.57 -19.05,-62.88 11.76,-29.26 14.54,-28.46 -45.76,6.27 -71.7,20.92 -130.1,-2.76 -36.6,-89.17 10.31,-96.7 1.17,-73.06 l -18.75,7.27 c 4.71,-41.87 22.28,2.33 -12.06,-8.59 -42.75,-13.59 -158.37,3.03 -195,1.59 -69.24,-2.71 -19.43,-44.8 -86.5,0.9 l -19,13.96 c -87.93,64.11 -34.77,36.72 -150.32,66.72 -4.95,1.28 -32.79,8.95 -37.99,10.84 17.95,-21.71 1.62,-12.53 9.06,-40.7 -33.15,27.38 -54.33,71.61 -82.37,116.27 -86.41,137.66 -211.82,201.79 -296.86,272.28 l 435.67,251.5 c 393.82,228.59 1167.47,728.6 1319.87,105.75 48.57,-198.52 130.26,-296.82 210.73,-470.83 70.55,-152.56 143.51,-310.16 211.51,-470.53 60.88,-143.56 147.25,-332.94 184.43,-496.37 23.06,-101.36 23.36,-208.37 18.39,-314.53 l 0.86,-307.52 c -112.59,60.39 -23.26,146.28 -225.08,129.26 l -16.66,-103.12 c -127.69,81.53 -50.61,216.07 27.39,413.5 73.48,186 146.96,260.02 9.49,441.83 z"
       id="path4" />
    <path
       fill="#fab7fb"
       d="m 2834.85,3015.21 c 108,-23.67 61.77,67.61 80.87,207.31 15.72,114.91 -9.49,154.76 -39.62,247.9 l -38.21,95.27 c -16.98,56.23 3.77,52.72 -80.36,124.38 l -45.98,39.09 c -68.56,54.28 -54.17,46.48 -88.29,43.07 l 162.97,166.31 c 61.94,-20.33 77.21,-11.53 125.15,-40.55 93.63,-56.69 163.04,-270.36 228.94,-297.58 -58.53,-68.59 -98.94,-79.95 -142.24,-173.55 276.75,68.37 437.53,22.27 698.89,30.6 81.79,2.61 149.48,29.53 204.8,29.77 -39.34,-9.23 -271.14,-185.11 -335.35,-225.01 -169.81,-105.52 -276.83,-75.52 -481.89,-118.21 96.52,-42.15 325.68,-80.89 439.56,-66.54 -56.8,-22.04 -10.48,1.71 -40.01,-25.94 35.46,-48.81 31.14,-29.37 27.9,-104.63 -108.19,-56.19 -211.84,-127.74 -366.46,-81.7 -67.73,20.17 -269.59,108.17 -310.71,150.02 z"
       id="path5" />
    <path
       fill="#010f37"
       d="m 3140.33,3600.41 c 131.14,10.85 141.06,6.05 216.58,87.36 74.54,80.26 61.94,84.23 194.37,108.98 l 40.63,-7.35 c -85.79,-41.83 -162.27,-107.57 -191.76,-187.09 l 213.41,6.05 c 33.75,90 26.56,155.46 105.9,183.77 121.48,43.34 161.01,-11.18 185.1,-104.93 89.11,32.24 142.03,83.88 171.91,154.28 50.07,-24.99 50.86,-47.63 77.92,-103.38 19.11,-39.38 31.97,-64.1 56.2,-92.07 143.81,-59.7 243.48,11.76 259.27,-206.77 -154.95,143.61 -640.69,-305.8 -945.75,-361.81 -113.88,-14.35 -343.04,24.38 -439.56,66.54 205.05,42.7 312.08,12.69 481.89,118.21 64.21,39.9 296.01,215.78 335.35,225.01 -55.32,-0.24 -123.01,-27.16 -204.8,-29.77 -261.37,-8.33 -422.15,37.77 -698.89,-30.6 43.3,93.6 83.71,104.97 142.24,173.55 z"
       id="path6" />
    <path
       fill="#f796ec"
       d="m 2468.06,1301.63 c 35.82,36.8 131.57,97.95 171.69,115.26 20.92,-10.13 -12.83,-2.57 26.83,-2.24 185.81,1.52 379.38,-86.24 583.26,70.61 l 32.78,32.02 c 4.61,5.29 23.98,30.54 28.84,37.33 2.05,2.86 4.97,6.79 6.97,9.71 2,2.92 4.76,6.92 6.72,9.89 l 79.42,119.66 c 10.37,21.48 6.5,23.48 18.49,48.27 53.62,110.93 98.12,69.66 7.28,361.59 -39.34,126.45 -34.9,64.85 -16.1,199.49 l 117.76,60.35 c -3.65,-63.62 15.17,-51.9 57.07,-185.79 53.34,-170.44 132.87,-491.55 40.09,-659.17 -0.21,-0.39 -28.75,-42.89 -29.51,-44.7 -8.14,-19.33 -9.54,-94.9 -36.52,-120.31 -20.2,-19.03 -10.18,20.9 -36.77,-1.47 -37.41,-31.47 62.2,3.19 -134.25,-113.2 -124.38,-73.69 -425.27,-97.53 -563.43,-69.66 l -360.62,132.35 z"
       id="path7" />
    <path
       fill="#f7cefb"
       d="m 4442.06,2483.97 c -70.8,-397.52 399.86,-472.94 466.39,-61.56 67.67,418.48 -401.3,427.02 -466.39,61.56 z m 88.68,-503.05 c -205.11,65.25 -349.86,297.11 -260.47,577.83 64.4,202.21 236.71,408.67 514.3,347.1 51.31,-11.38 108.19,-42.6 143.5,-71.52 305.9,-250.48 27.03,-988.4 -397.33,-853.41 z"
       id="path8" />
    <path
       fill="#f2d6fc"
       d="m 2639.75,1416.88 c 73.29,85.66 131.71,115.12 204.45,207.89 78.3,99.85 93.98,134.1 158.46,257.55 170.66,326.75 76.88,253.87 411.58,420.9 -18.8,-134.64 -23.24,-73.05 16.1,-199.49 90.84,-291.93 46.33,-250.65 -7.28,-361.59 -11.99,-24.8 -8.12,-26.79 -18.49,-48.27 l -79.42,-119.66 c -1.96,-2.97 -4.72,-6.97 -6.72,-9.89 -2,-2.92 -4.92,-6.85 -6.97,-9.71 -4.86,-6.8 -24.23,-32.04 -28.84,-37.33 l -32.78,-32.02 c -203.87,-156.85 -397.44,-69.09 -583.26,-70.61 -39.66,-0.33 -5.91,-7.89 -26.83,2.24 z"
       id="path9" />
    <path
       fill="#f796ec"
       d="m 3551.28,3796.75 c -39.11,114.63 -155.75,220.09 -247.45,288.8 l -86.14,63.23 c -11.23,7.71 -19,11.64 -29.82,20.46 -26.95,21.96 -9.39,6.06 -26.13,24.93 -2.8,3.16 -1.19,49.99 -13.9,19.87 -1.11,-2.63 -4.1,7.07 -6.41,10.44 72.49,173.57 17.41,267.55 124.2,410.71 24.52,-31.54 13.7,-55.45 13.33,-110.15 101.62,-1.48 35.24,7.79 80.13,-34.27 l 32.63,-34.29 c 2.57,-2.33 6.31,-5.53 8.96,-7.78 l 47.6,-35.5 c 2.71,-2.13 6.5,-5.24 9.18,-7.41 l 80.01,-69.5 c 173.52,-151.08 32.93,-31.66 145.99,-169.47 154.44,-188.25 76.51,-131.73 112.55,-195.33 14.44,-25.49 83.59,-51.68 58.45,-157.76 113.91,0 142.24,22.93 222.03,27.75 -29.88,-70.4 -82.8,-122.04 -171.91,-154.28 -24.1,93.75 -63.63,148.27 -185.1,104.93 -79.34,-28.31 -72.15,-93.78 -105.9,-183.77 l -213.41,-6.05 c 29.49,79.51 105.97,145.25 191.76,187.09 l -40.63,7.35 z"
       id="path10" />
    <path
       fill="#fab7fb"
       d="m 2786.24,3938.53 34.98,34.8 c 119.29,86.26 158.14,21.13 320.22,251.15 2.3,-3.37 5.3,-13.07 6.41,-10.44 12.71,30.12 11.1,-16.71 13.9,-19.87 16.74,-18.86 -0.82,-2.96 26.13,-24.93 10.81,-8.81 18.59,-12.75 29.82,-20.46 l 86.14,-63.23 c 91.71,-68.7 208.34,-174.16 247.45,-288.8 -132.43,-24.75 -119.83,-28.72 -194.37,-108.98 -75.52,-81.32 -85.44,-76.51 -216.58,-87.36 -65.9,27.22 -135.32,240.89 -228.94,297.58 -47.94,29.02 -63.22,20.22 -125.15,40.55 z"
       id="path11" />
    <path
       fill="#d878d8"
       d="m 4442.06,2483.97 c 65.09,365.46 534.07,356.92 466.39,-61.56 -66.53,-411.38 -537.19,-335.96 -466.39,61.56 z"
       id="path12" />
    <path
       fill="#f2d6fc"
       d="m 2623.26,3772.23 c 34.12,3.41 19.73,11.21 88.29,-43.07 l 45.98,-39.09 c 84.12,-71.67 63.38,-68.16 80.36,-124.38 l 38.21,-95.27 c 30.13,-93.15 55.34,-133 39.62,-247.9 -19.11,-139.69 27.13,-230.97 -80.87,-207.31 -148.26,56.42 -214.5,153.88 -270.84,314.08 -47.61,135.41 -51.75,376.69 59.25,442.94 z"
       id="path13" />
    <path
       fill="#010f37"
       d="m 4171.26,5292.49 c 134.88,-40.15 122.72,71.51 331.53,26.22 52.9,-11.48 74.3,-8.84 108.3,-41.07 39.99,-37.91 48.23,-87.04 57.57,-150.53 -7.85,-47.37 -29.04,-76.99 -73.93,-78.33 -78.41,-2.35 0.32,38.02 -126.89,7.2 -248.83,-60.27 -217.74,9.25 -466.02,109.32 -150.64,60.71 -185.31,20.16 -222.7,94.71 28.4,49.3 -12.36,28 71.67,46.18 90.49,19.58 220.36,-9.64 320.48,-13.7 z"
       id="path14" />
    <path
       fill="#d878d8"
       d="m 3927.74,5918.18 c -4.21,15.01 -38.22,58.2 -28.16,90.55 14.93,47.99 82.24,59.42 148.3,64.11 337.76,23.97 395.53,-374.54 96.9,-384.37 -96.87,-3.19 -106.64,16.32 -145.35,74.47 -14.9,22.38 -69.86,110.83 -71.5,128.76 l -0.2,26.49 z"
       id="path15" />
    <path
       fill="#f2d6fc"
       d="m 4252.34,4699.93 c 122.56,-126.27 193.49,-111.9 382.1,-92.99 53.46,14.27 64.54,19.62 110.09,2.36 21.86,-55.82 -16.15,-105.16 -34.01,-153.33 -265.45,75.74 -299.57,-105.58 -464.75,-47.83 -88.36,45.92 -71.66,274.46 6.57,291.78 z"
       id="path16" />
    <path
       fill="#010f37"
       d="m 4444.91,5530.51 c -151.27,15.62 -229.52,-14.42 -362.34,-47.66 8.46,88.43 26.66,143.64 105.86,167.4 75.53,22.66 127.44,29.29 204.09,56.79 33.38,-59.53 54.44,-94.42 52.38,-176.53 z"
       id="path17" />
    <path
       fill="#010f37"
       d="m 2349.93,2507.09 163.38,-19.78 c 20,-96.39 -8.96,-185.62 -63.64,-249.64 -115.86,7.22 -145.47,75.75 -131.24,175.5 1.16,8.16 7.18,35.41 9.06,41.58 l 22.43,52.35 z"
       id="path18" />
    <path
       fill="#010f37"
       d="m 4252.34,4699.93 c 20.21,71.93 -15.7,21.68 42.49,49.53 34.94,16.73 280.16,-3.59 339.61,-142.52 -188.61,-18.92 -259.54,-33.28 -382.1,92.99 z"
       id="path19" />
    <path
       fill="#010f37"
       d="m 2440.95,4481.38 c 135.08,0.97 152.21,-40 141.74,-174.49 -54.63,-40.43 -112.96,-89.52 -172.58,-16.94 -61.89,75.34 -0.94,136.54 30.84,191.43 z"
       id="path20" />
    <path
       fill="#010f37"
       d="m 3006.87,4653.41 c -134.89,-40.4 -187.55,59.35 -121.61,121.94 70.17,66.61 164.69,3.61 121.61,-121.94 z"
       id="path21" />
    <path
       fill="#010f37"
       d="m 2507.45,4803.5 c -109.69,-33.41 -142.97,12.35 -115.8,118.57 115.6,38.1 152.53,-7.12 115.8,-118.57 z"
       id="path22" />
    <path
       fill="#f2d6fc"
       stroke="#2b2a29"
       stroke-width="3.9"
       d="m 3352.73,3603.11 c -2.12,21.96 109.02,173.48 165.19,193.7 64.36,23.18 157.97,48.24 224.95,52.75 67.38,4.54 118.02,15.74 191.51,15.74 45.76,0 158.47,5.15 191.62,-26.78 21.74,-20.94 -48.76,-165.65 -86.38,-194.9 -43.83,-34.07 -63.05,-54.33 -124.03,-67.48 -72.98,-15.74 -329.24,-38.58 -409.32,-23.21 -6.33,1.22 -160.62,28.96 -159.33,42.86 0.26,2.79 4.66,18.99 5.79,7.33 z"
       id="path23" />
    <path
       fill="#f2d6fc"
       stroke="#2b2a29"
       stroke-width="3.9"
       d="m 4758.48,3754.02 c -24.11,-8.75 -68.41,69.09 -23.65,95.02 41.86,24.24 319.3,45 345.02,12.56 42.23,-53.27 98.29,-149.74 78.98,-221.11 -15.69,-58.01 -172.82,-33.73 -211.33,-18.52 -51.81,20.46 -140.7,62.09 -170.9,112.44 -5.57,9.28 -18.21,19.56 -18.12,19.6 z"
       id="path24" />
  </g>
</svg>
