<svg fill-rule="evenodd" viewBox="0 0 32278.53 32320.72" xmlns="http://www.w3.org/2000/svg"><g><path fill="#000923" d="M-0 3816.24l0 24532.81c225.27,524.05 352.99,1437.91 1100.13,2207.13 1028.93,1059.23 2037.83,1651.26 3845.24,1733.43 1425.02,64.83 3002.32,8.61 4442.97,6.12l13321.27 1.15c1461.62,-0.29 2990.28,40.56 4443.49,-4.4 1578.3,-48.83 2337.47,-445.69 3318.95,-1127.21 547.37,-466.99 500.39,-467.38 689.5,-697.54 721.13,-877.67 1103.8,-1811.88 1102.22,-3317.71l-1.68 -13321.27c1.63,-2953.25 36.84,-5930.82 -1.15,-8880.86 -27.58,-2138.33 -1161.38,-3878.02 -3108.96,-4669.87 -259.49,-105.5 -625.3,-174.58 -882.86,-278.03l-24331.61 0c-198.96,78.84 -562.75,142.38 -791.22,226.04 -1134.62,415.3 -1989.58,1192.2 -2602.54,2222.94 -371.91,625.43 -378.5,981.77 -543.72,1367.3l-0.03 -0.05z" /><path fill="#341D86" d="M6828.59 11170.82c-468.15,-63.9 -1959.26,475.65 -2374.19,701.14l91.93 1498.37c292.78,1323.46 719.13,1685.98 1569.64,2927.44 398.12,581.14 347.3,288.52 1112.49,504.27 296.82,-18.05 1495.85,-940.4 1727.33,-1200.99 642.82,-723.58 841.99,-297.33 2545.34,-240.49 -274.72,-283.56 -245.53,-483.78 -32.6,-868.92l168.54 -255.46c11.87,-20.15 26.65,-47.5 38.17,-68.02l71.26 -141.35c11.45,-21.06 24.04,-49.77 35.75,-70.55 612.2,-1085.88 745.19,-580.38 1043.3,-848.65 18.15,-16.35 197.27,-44.07 301.45,-301.51l219.83 472.16c-79.76,-1323.37 -283.3,-2433.45 -238.89,-3826.54 -1112.7,431.27 -413.43,1392.72 -386.4,1505.99 -873.92,-865.72 -1630.76,400.04 -2093.91,785.44 -343.66,285.99 -2343.77,721.9 -2842.67,765.85l-956.37 -1338.17z" /><path fill="#1B1457" d="M14448.87 16353.45c-826.45,395.69 -2612.1,2240.57 -2443.08,3748.7 280.61,177.99 628.46,434.48 915.73,660.94 358.4,282.5 546.57,654.36 993.27,597.52 221.69,-28.21 2328.08,-663.23 2491.21,-747.51 284.11,-471 1187.53,-1411.23 1683.02,-1576.74 -3.14,-502.31 -184.34,-800.57 -197.59,-1306.46 1503.73,-591.99 3624.81,-708.44 5069.83,-1415.46 -375.28,-177.19 -32.97,-0.86 -212.44,-239.55 -424.86,-77.71 -1836.88,-678 -2080.96,-983.5 -1749.37,14.33 -4449.65,1191.78 -6218.97,1262.06z" /><path fill="#1B1457" d="M14177.81 11312.63c-76.87,673.22 -276.83,2445.13 -548.93,2845.69 -196.38,-215.5 -267.85,-473.82 -282.04,-880.07l-219.83 -472.16c-104.18,257.44 -283.3,285.16 -301.45,301.51 -298.11,268.27 -431.1,-237.23 -1043.3,848.65 -11.71,20.78 -24.3,49.49 -35.75,70.55l-71.26 141.35c-11.51,20.52 -26.3,47.86 -38.17,68.02l-168.54 255.46c-212.93,385.14 -242.12,585.36 32.6,868.92 -1703.35,-56.84 -1902.53,-483.09 -2545.34,240.49 -231.48,260.6 -1430.51,1182.95 -1727.33,1200.99 702.38,354.56 1629.1,567.52 2235.84,840.27 -45.6,514.66 -208.23,402.07 -349.81,961.21l688.25 34.17c15.51,-46 30.25,-122.69 35.69,-107.46 76.81,214.81 33.8,-353.36 312.24,-1013.65 306.14,-725.87 342.37,-679.12 556.05,-870.57 55.46,-210.62 406.34,-527.95 672.25,-750.84 283.99,-238.03 623.82,-403.45 941.55,-631.66 1120.28,-345.41 3228.86,-1189.54 4369.51,-1261.49 997.21,-611.14 2042.15,-246.22 2878.18,-1256.02l-69.81 -259.1c-298.51,146.14 -515.99,351.13 -806.27,504.9 -217.73,115.34 -697.08,257 -843.02,347.01 -37.86,-625.19 149.86,-1388.41 -33.34,-1998.67 -173.98,-541.17 -295.64,-528.64 -594.48,-944.04l-264.96 -371.71c-569.09,-735.57 -540.34,-1070.83 -908.64,-1216.25 -392.31,399.93 -593.76,778.86 -978.78,1208.31 -227.55,253.83 -827.71,845.54 -891.12,1296.2z" /><path fill="#564DC6" d="M6828.59 11170.82l956.37 1338.17c498.9,-43.94 2499.02,-479.86 2842.67,-765.85 463.15,-385.41 1219.99,-1651.17 2093.91,-785.44 -27.02,-113.27 -726.3,-1074.72 386.4,-1505.99 -44.41,1393.09 159.13,2503.17 238.89,3826.54 14.19,406.25 85.66,664.57 282.04,880.07 272.11,-400.56 472.07,-2172.47 548.93,-2845.69 -311.43,-371.11 178.88,-237.75 -951.34,-1561 83.83,-375.98 422.34,-786.2 632.52,-1058.44 989.5,-1281.67 1005.77,-1611.3 1330.27,-2059.97 281.36,-389.05 486.25,-515.01 727.19,-966.83l-1489.45 -264.18 -1502.26 2030.56c-335.97,402.28 -362.09,219.23 -651.35,662.43 -875.92,-51.48 -2191.39,-128.88 -3082.47,8.08 -425.92,65.45 -555.08,325.12 -1050.5,1045.27l-986.18 1628.48c-228.04,441.85 141.3,115.51 -325.64,393.78z" /><path fill="#4538A8" d="M25816.03 14248.59c-241.6,93.76 4.1,-97.99 -210.95,177.56l-391.69 782.29c-1649.46,3813.43 -1133.21,2622 -4701.06,3076.66 -1112.46,141.75 -1512.45,551.07 -2423.33,751.26 -495.49,165.51 -1398.9,1105.74 -1683.02,1576.74l516.16 -33.31c335.83,537.58 451.62,79.41 850.4,713 279.19,-337.68 2966.35,-1330.2 3482.25,-1484.9 1286.1,-385.68 2883.61,-769.61 4256.8,-15.88 125.75,-382.24 629.06,-857.69 925.64,-1161.7 1986.91,-2036.82 1082.08,-3136.35 1375.11,-4611.23l37.57 -300.97c-715.55,-104.38 -1409.49,389.86 -2033.88,530.47z" /><path fill="#332C73" d="M17772.55 21292.8c-414.9,69.26 -419.39,59.32 -800.46,189.11 -223.71,76.21 -199.94,46.27 -377.34,155.55 -250.63,154.4 -51.29,-40.33 -247.38,222.25 935.34,1734.28 2284.18,1489.18 3156.5,2732.01 707.74,1008.29 1370.81,3129.4 3046.6,2580.4 32.8,-335.05 -684.06,-2277.95 -880.03,-2549.17 -354.99,-479.35 -723.67,-367.7 -1213.36,-552.19 -171.86,-64.76 -358.11,-149.4 -590.44,-264.59 -1419.82,-703.82 -1055.8,-670.09 -1554.07,-1426.17 -221.94,-336.76 -46.33,-53.24 -203.54,-227.66 -469.81,-521.16 -152.62,-494.15 -123.4,-566.41 630.29,-40.18 289.92,-85.03 676.59,354.02 1274.14,1446.78 2869.82,1963.99 4858.27,1793.72l-850.46 -189.31c357.06,-413.24 469.45,-216.67 773.02,-694.56 1015.79,-1598.88 1067.54,-1329.54 2112.24,-2042.6 -1934.2,171.89 -3138.91,1808.38 -5140.26,1384.15 17.95,-365.59 35.54,-439.17 332.84,-754.16l164.84 -157.38c16.45,-15 40.41,-35.25 57.04,-50 16.54,-14.69 40.36,-34.97 57.09,-49.49 171.57,-149 80.51,-82.53 293.75,-240.15 1742.9,-1288.37 4579.24,-55.46 5781.43,-648.43l30.76 -209.47 -1621.18 -290.23c-1373.19,-753.73 -2970.7,-369.8 -4256.8,15.88 -515.9,154.71 -3203.06,1147.22 -3482.25,1484.9z" /><path fill="#343788" d="M22748.81 16074.89c179.47,238.69 -162.84,62.36 212.44,239.55 -1445.02,707.02 -3566.1,823.47 -5069.83,1415.46 13.25,505.9 194.45,804.15 197.59,1306.46 910.88,-200.19 1310.88,-609.51 2423.33,-751.26 3567.85,-454.67 3051.59,736.76 4701.06,-3076.66l391.69 -782.29c215.05,-275.55 -30.65,-83.8 210.95,-177.56 129.53,-613.37 -448.39,-3504.35 -486.22,-4501.24 -660.33,-230.41 -244.69,1499.03 -1063.81,2352.13 -592.25,616.84 53.71,1152.65 -482.95,1805.67 -574.2,698.77 -150.76,780.34 -370.53,1379.06l-218.62 726.96 -445.11 63.71z" /><path fill="#AE68DA" d="M22420.81 7518.92c233.24,411.27 750.57,1300.38 550.75,1697.99 -481.83,958.72 -1110.56,3210 -1849.05,3869.58 -557.65,498.1 -48.68,665.44 -1117.91,1085.96 -265.73,-280.38 -449.09,-503.16 -890.9,-629.52l-155.43 154.05c-427.89,417.28 -1701.31,341.49 -2268.23,305.05 -1140.65,71.95 -3249.23,916.08 -4369.51,1261.49 119.12,114.34 40.62,41.84 204.61,134.77 83.74,47.46 191.03,96.51 286.13,146.48 537.19,282.08 1169.45,753.4 1637.6,808.7 1769.32,-70.27 4469.6,-1247.73 6218.97,-1262.06 331.5,-921.67 1038.51,-2031.15 1429.18,-2962.75l1302.01 -2942.58 1639.59 148.5c-171.64,-157.7 -127.48,-131.74 -230.94,-382.81 -62.33,-151.25 -107.84,-313.15 -165.53,-476.8 -126.53,-358.98 -219.03,-532.33 -338.26,-843.82 -497.03,-421.59 -1143.97,-667.8 -2024.98,-574.6l141.9 462.4z" /><path fill="#343788" d="M17815.78 11340.13c183.2,610.26 -4.52,1373.48 33.34,1998.67 145.94,-90.01 625.3,-231.67 843.02,-347.01 290.28,-153.77 507.76,-358.75 806.27,-504.9l69.81 259.1 1524.67 -2578.53c224.6,-507.68 346.61,-1012.55 540.03,-1478.14 265.79,-639.96 210.12,-65.69 787.89,-1170.4l-141.9 -462.4c-410.71,-114.83 -427.97,205.34 -496.74,662.85 -717.04,15.22 -641.59,16.63 -1205.86,284.14 9.61,-779.57 -225.01,-566.01 -356.02,-1150.76 -840.46,-125.47 -2424.51,-456.86 -3207.08,-353.25 -50.78,356.89 -76.53,124.07 163.99,331.82l1142.21 778.68c1285.53,853.29 718.27,947.27 1047.64,1327.97 143.58,-269.02 242.23,-234.07 637.04,-359.61 -169.55,571.7 78.07,179.7 -317.27,552.88 -52.66,49.69 -220.74,145.27 -309.29,214.88 -528.14,415.07 -1367.92,2051.68 -1466.63,1922.4 -17.75,-23.23 -61.76,50.15 -95.13,71.6z" /><path fill="#564DC6" d="M20667.84 15091.4c244.09,305.49 1656.1,905.78 2080.96,983.5l445.11 -63.71 218.62 -726.96c219.77,-598.72 -203.68,-680.29 370.53,-1379.06 536.65,-653.02 -109.3,-1188.83 482.95,-1805.67 819.12,-853.11 403.48,-2582.54 1063.81,-2352.13 -47.3,-480.13 23.55,-293.87 -291.18,-412.8l-1639.59 -148.5 -1302.01 2942.58c-390.68,931.6 -1097.68,2041.08 -1429.18,2962.75z" /><path fill="#564DC6" d="M21670.44 24622.94c-32.83,-465.66 -240.52,-299.96 990.17,-278.15 369.8,6.56 775.33,-32.52 1101.67,-108.79 686.47,-160.38 1140.45,-364.21 1538.56,-773.41l-960.44 30.31c393.75,-849.95 387.34,-1369.28 1259.97,-1993.4 843.56,-603.32 550.82,-749.12 1448.52,-928.84l53.14 -278.95c-1202.19,592.97 -4038.53,-639.94 -5781.43,648.43 -213.24,157.63 -122.18,91.15 -293.75,240.15 -16.72,14.53 -40.55,34.8 -57.09,49.49 -16.63,14.76 -40.59,35 -57.04,50l-164.84 157.38c-297.3,314.99 -314.88,388.57 -332.84,754.16 2001.34,424.23 3206.05,-1212.26 5140.26,-1384.15 -1044.7,713.06 -1096.45,443.72 -2112.24,2042.6 -303.57,477.89 -415.96,281.31 -773.02,694.56l850.46 189.31c-1988.45,170.28 -3584.13,-346.93 -4858.27,-1793.72 -386.67,-439.05 -46.3,-394.2 -676.59,-354.02 -29.22,72.26 -346.41,45.25 123.4,566.41 157.21,174.41 -18.4,-109.1 203.54,227.66 498.27,756.09 134.25,722.35 1554.07,1426.17 232.33,115.19 418.58,199.83 590.44,264.59 489.7,184.49 858.38,72.84 1213.36,552.19z" /><path fill="#D58CF0" d="M15916.45 5666.38c-240.94,451.82 -445.83,577.79 -727.19,966.83 -324.51,448.67 -340.77,778.3 -1330.27,2059.97 -210.18,272.25 -548.69,682.46 -632.52,1058.44 1130.22,1323.25 639.91,1189.89 951.34,1561 63.4,-450.65 663.57,-1042.36 891.12,-1296.2 385.02,-429.44 586.47,-808.38 978.78,-1208.31 394.98,-412.37 310.7,-619.84 471.4,-1178.53 121.44,-422.28 151.99,-891.79 494.11,-1130.09 782.57,-103.61 2366.63,227.78 3207.08,353.25 595.69,-207.87 390.65,-375.98 821.24,-699.98 -2282.29,-1729.82 -4438.03,-239.43 -5125.09,-486.39z" /><path fill="#564DC6" d="M3950.98 15594.33c381.61,1008.18 1210.89,1750.62 2134.15,2330.4 1096.41,688.45 2358.53,683.49 3777,803.26l45.93 458.17 1676.58 578.71c231.93,-141.46 196.3,106.41 185.85,-987.57 -5.21,-543 55.09,-627.59 -215.7,-1096.92l-359.47 -581.23c-12.68,-22.16 -25.09,-50.94 -38.55,-72.84 -276.33,-448.96 -63.68,-298.35 -450.02,-380.3 -213.68,191.44 -249.91,144.7 -556.05,870.57 -278.44,660.3 -235.43,1228.46 -312.24,1013.65 -5.44,-15.23 -20.18,61.45 -35.69,107.46l-688.25 -34.17c141.58,-559.14 304.2,-446.55 349.81,-961.21 -606.74,-272.75 -1533.46,-485.71 -2235.84,-840.27 -765.18,-215.74 -714.37,76.87 -1112.49,-504.27 -850.51,-1241.46 -1276.86,-1603.98 -1569.64,-2927.44 55.64,1332.26 -465.29,1158.81 -595.35,2224z" /><path fill="#D58CF0" d="M8193.25 7173.39l600.09 873.12 -1599.43 2179.29c-336.79,502.28 -200.82,440.6 -843.91,595.42 -598.01,143.96 -1944.12,780.85 -2011.1,650.58 -229.62,198.74 -282.01,336.42 -411.92,795.7 -103.89,367.3 -156.78,715.92 -187.86,1090.34 -57.44,691.87 -79.28,1731.85 211.87,2236.5 130.07,-1065.19 651,-891.75 595.35,-2224l-91.93 -1498.37c414.93,-225.49 1906.05,-765.03 2374.19,-701.14 466.95,-278.27 97.6,48.06 325.64,-393.78l986.18 -1628.48c495.41,-720.15 624.57,-979.82 1050.5,-1045.27 891.09,-136.97 2206.56,-59.56 3082.47,-8.08 289.26,-443.2 315.38,-260.15 651.35,-662.43l1502.26 -2030.56c-641.93,18.2 -1186.97,4.27 -1773.44,196.22 -623.61,204.06 -830.79,475.28 -1278.72,722.98 -691.87,382.58 -2103.07,-121.57 -3181.58,851.98z" /><path fill="#6E6ACF" d="M10706.73 16646c386.34,81.96 173.69,-68.66 450.02,380.3 13.46,21.9 25.87,50.68 38.55,72.84l359.47 581.23c270.79,469.33 210.49,553.91 215.7,1096.92 10.45,1093.98 46.08,846.11 -185.85,987.57l337.36 97.53c15.03,783.95 -209.95,1210.66 -236.63,1907.37 998.99,328.81 2538.53,565.23 3599.51,249.97 796.89,-236.76 768.86,-373.86 1062.52,-160.02 196.08,-262.58 -3.26,-67.85 247.38,-222.25 177.39,-109.29 153.63,-79.34 377.34,-155.55 381.07,-129.79 385.56,-119.85 800.46,-189.11 -398.78,-633.6 -514.57,-175.43 -850.4,-713l-516.16 33.31c-163.13,84.28 -2269.52,719.3 -2491.21,747.51 -446.7,56.84 -634.87,-315.02 -993.27,-597.52 -287.26,-226.46 -635.12,-482.95 -915.73,-660.94 -169.02,-1508.13 1616.63,-3353.01 2443.08,-3748.7 -468.15,-55.3 -1100.4,-526.62 -1637.6,-808.7 -95.1,-49.97 -202.39,-99.02 -286.13,-146.48 -163.99,-92.93 -85.49,-20.43 -204.61,-134.77 -317.73,228.21 -657.56,393.63 -941.55,631.66 -265.91,222.89 -616.8,540.22 -672.25,750.84z" /><path fill="#6C4FCD" d="M19568.22 12745.99c-836.03,1009.79 -1880.98,644.88 -2878.18,1256.02 566.92,36.44 1840.34,112.24 2268.23,-305.05l155.43 -154.05c441.82,126.36 625.17,349.15 890.9,629.52 1069.23,-420.51 560.26,-587.85 1117.91,-1085.96 738.49,-659.57 1367.22,-2910.86 1849.05,-3869.58 199.82,-397.61 -317.51,-1286.71 -550.75,-1697.99 -577.77,1104.71 -522.1,530.44 -787.89,1170.4 -193.43,465.59 -315.44,970.46 -540.03,1478.14l-1524.67 2578.53z" /><path fill="#69A3DB" d="M25511.6 19792.02l1621.18 290.23c1501.7,-317.88 1778.28,-1095.79 1865.19,-2693.18 53.55,-984.77 -515.5,-3126.96 -1185.62,-3369.98 -293.03,1474.88 611.8,2574.41 -1375.11,4611.23 -296.58,304.02 -799.89,779.46 -925.64,1161.7z" /><path fill="#6C4FCD" d="M16047.7 8808.12c368.3,145.42 339.55,480.69 908.64,1216.25l264.96 371.71c298.84,415.39 420.5,402.87 594.48,944.04 33.37,-21.44 77.38,-94.82 95.13,-71.6 98.71,129.28 938.49,-1507.33 1466.63,-1922.4 88.55,-69.61 256.63,-165.19 309.29,-214.88 395.33,-373.19 147.71,18.81 317.27,-552.88 -394.81,125.55 -493.46,90.59 -637.04,359.61 -329.36,-380.7 237.89,-474.68 -1047.64,-1327.97l-1142.21 -778.68c-240.52,-207.75 -214.77,25.07 -163.99,-331.82 -342.12,238.29 -372.66,707.81 -494.11,1130.09 -160.7,558.69 -76.42,766.17 -471.4,1178.53z" /><path fill="#8EEFF4" d="M25038.63 9334.56c314.73,118.92 243.89,-67.34 291.18,412.8 37.83,996.88 615.75,3887.87 486.22,4501.24 624.39,-140.61 1318.33,-634.86 2033.88,-530.47 -52.6,-572.16 46.2,-1485.24 -279.99,-2061.04 -305.63,-539.54 -935.42,-753.73 -1154.23,-1293.31 -397.21,-979.65 -1347.7,-2501.46 -2111.8,-2732.64 119.23,311.49 211.73,484.84 338.26,843.82 57.69,163.65 103.2,325.55 165.53,476.8 103.46,251.07 59.3,225.1 230.94,382.81z" /><path fill="#AE68DA" d="M4338.89 11471.79c66.99,130.27 1413.09,-506.62 2011.1,-650.58 643.1,-154.81 507.13,-93.13 843.91,-595.42l1599.43 -2179.29 -600.09 -873.12c-487.51,204.26 -800.63,524.39 -1090.55,939.98 -154.88,222.06 -244.38,380.41 -339.02,621.68 -541.34,1380.06 -625.9,506.94 -1602.17,1470.59 -308.4,304.42 -747.71,762.69 -822.63,1266.15z" /><path fill="#4ECEE5" d="M25300.84 23462.59c436.34,-176.21 847.56,-737.41 1107.51,-1148.55 342.64,-541.91 479.44,-1055.31 640.54,-1743.38 -897.7,179.71 -604.96,325.52 -1448.52,928.84 -872.63,624.11 -866.22,1143.44 -1259.97,1993.4l960.44 -30.31z" /><path fill="#C971E9" d="M11685.35 21769.75c26.68,-696.71 251.66,-1123.41 236.63,-1907.37l-337.36 -97.53 -1676.58 -578.71c155.04,604.61 347.67,1082.88 619.93,1522.21 466.76,753.23 598.8,567.33 1157.37,1061.39z" /><path fill="#926ADD" d="M20220.29 6852.76c131,584.75 365.62,371.19 356.02,1150.76 564.27,-267.51 488.82,-268.93 1205.86,-284.14 68.77,-457.51 86.03,-777.68 496.74,-662.85l-577.74 -494.25c-341.69,-333.96 -136.32,-352.63 -659.63,-409.51 -430.6,324 -225.55,492.11 -821.24,699.98z" /></g></svg>